<?xml version="1.0" encoding="utf-8"?>
<!-- Generator: Adobe Illustrator 15.0.0, SVG Export Plug-In  -->
<!DOCTYPE svg PUBLIC "-//W3C//DTD SVG 1.1//EN" "http://www.w3.org/Graphics/SVG/1.1/DTD/svg11.dtd" [
	<!ENTITY ns_flows "http://ns.adobe.com/Flows/1.0/">
]>
<svg version="1.1"
	 xmlns="http://www.w3.org/2000/svg" xmlns:xlink="http://www.w3.org/1999/xlink" xmlns:a="http://ns.adobe.com/AdobeSVGViewerExtensions/3.0/"
	 x="0px" y="0px" width="80px" height="40px" viewBox="0 0 80 40" overflow="visible" enable-background="new 0 0 80 40"
	 xml:space="preserve">
<defs>
</defs>
<rect display="none" fill="#E8E8E8" width="20" height="20"/>
<rect x="20" display="none" fill="#F2F2F2" width="20" height="20"/>
<rect x="40" display="none" fill="#E8E8E8" width="20" height="20"/>
<rect x="60" display="none" fill="#F2F2F2" width="20" height="20"/>
<rect x="60" y="20" display="none" fill="#E8E8E8" width="20" height="20"/>
<rect y="20" display="none" fill="#F2F2F2" width="20" height="20"/>
<rect x="20" y="20" display="none" fill="#E8E8E8" width="20" height="20"/>
<rect x="40" y="20" display="none" fill="#F2F2F2" width="20" height="20"/>
<line fill="none" stroke="#000000" stroke-width="1.6" stroke-linecap="round" x1="66.383" y1="6.383" x2="73.617" y2="13.617"/>
<line fill="none" stroke="#000000" stroke-width="1.6" stroke-linecap="round" x1="73.617" y1="6.383" x2="66.383" y2="13.617"/>
<path d="M8.213,11.147c0.056,0.39,0.166,0.681,0.329,0.874c0.299,0.351,0.812,0.527,1.538,0.527c0.435,0,0.788-0.046,1.059-0.139
	c0.515-0.178,0.772-0.508,0.772-0.99c0-0.282-0.126-0.5-0.378-0.654c-0.252-0.15-0.652-0.284-1.199-0.399l-0.935-0.203
	c-0.919-0.2-1.55-0.418-1.894-0.654C6.922,9.115,6.631,8.5,6.631,7.662c0-0.764,0.285-1.398,0.854-1.904
	C8.054,5.252,8.891,5,9.994,5c0.921,0,1.707,0.238,2.357,0.715c0.651,0.477,0.992,1.168,1.023,2.075h-1.734
	c-0.032-0.513-0.264-0.878-0.697-1.094c-0.289-0.143-0.647-0.214-1.075-0.214c-0.477,0-0.857,0.092-1.142,0.278
	C8.443,6.944,8.301,7.203,8.301,7.535c0,0.305,0.14,0.533,0.42,0.683c0.18,0.1,0.562,0.218,1.147,0.353l1.516,0.353
	c0.665,0.154,1.162,0.361,1.494,0.62c0.515,0.401,0.772,0.982,0.772,1.742c0,0.779-0.305,1.426-0.915,1.941S11.264,14,10.15,14
	c-1.137,0-2.032-0.253-2.683-0.761c-0.651-0.508-0.977-1.205-0.977-2.092H8.213z"/>
<path d="M31.93,5.363h3.063V14h-1.984V8.158c0-0.168,0.002-0.403,0.007-0.706c0.005-0.303,0.007-0.536,0.007-0.7L31.092,14h-2.069
	l-1.917-7.248c0,0.164,0.002,0.397,0.007,0.7c0.004,0.303,0.007,0.538,0.007,0.706V14h-1.984V5.363h3.098l1.855,6.791L31.93,5.363z"
	/>
<path d="M47,5h1.909v7.382h4.562V14H47V5z"/>
<line fill="none" stroke="#FFFFFF" stroke-width="1.6" stroke-linecap="round" x1="66.383" y1="26.383" x2="73.617" y2="33.617"/>
<line fill="none" stroke="#FFFFFF" stroke-width="1.6" stroke-linecap="round" x1="73.617" y1="26.383" x2="66.383" y2="33.617"/>
<path fill="#FFFFFF" d="M8.213,31.146c0.056,0.391,0.166,0.682,0.329,0.874c0.299,0.351,0.812,0.526,1.538,0.526
	c0.435,0,0.788-0.046,1.059-0.139c0.515-0.178,0.772-0.508,0.772-0.989c0-0.282-0.126-0.5-0.378-0.654
	c-0.252-0.15-0.652-0.284-1.199-0.399l-0.935-0.203c-0.919-0.2-1.55-0.418-1.894-0.653c-0.582-0.394-0.873-1.009-0.873-1.847
	c0-0.764,0.285-1.398,0.854-1.904C8.054,25.252,8.891,25,9.994,25c0.921,0,1.707,0.238,2.357,0.715
	c0.651,0.477,0.992,1.168,1.023,2.075h-1.734c-0.032-0.513-0.264-0.878-0.697-1.094c-0.289-0.143-0.647-0.214-1.075-0.214
	c-0.477,0-0.857,0.092-1.142,0.278c-0.284,0.185-0.426,0.443-0.426,0.775c0,0.305,0.14,0.533,0.42,0.683
	c0.18,0.1,0.562,0.218,1.147,0.353l1.516,0.353c0.665,0.154,1.162,0.361,1.494,0.62c0.515,0.401,0.772,0.982,0.772,1.742
	c0,0.779-0.305,1.427-0.915,1.941C12.125,33.742,11.264,34,10.15,34c-1.137,0-2.032-0.254-2.683-0.761
	c-0.651-0.508-0.977-1.205-0.977-2.093H8.213z"/>
<path fill="#FFFFFF" d="M31.93,25.363h3.063V34h-1.984v-5.842c0-0.168,0.002-0.403,0.007-0.706c0.005-0.303,0.007-0.536,0.007-0.7
	L31.092,34h-2.069l-1.917-7.248c0,0.164,0.002,0.397,0.007,0.7c0.004,0.303,0.007,0.538,0.007,0.706V34h-1.984v-8.637h3.098
	l1.855,6.791L31.93,25.363z"/>
<path fill="#FFFFFF" d="M47,25h1.909v7.382h4.562V34H47V25z"/>
<text transform="matrix(1 0 0 1 5.998 14)" display="none" font-family="'Helvetica-Bold'" font-size="12">S</text>
<text transform="matrix(1 0 0 1 25.002 14)" display="none" font-family="'Helvetica-Bold'" font-size="12">M</text>
<text transform="matrix(1 0 0 1 46.335 14)" display="none" font-family="'Helvetica-Bold'" font-size="12">L</text>
<text transform="matrix(1 0 0 1 5.998 35)" display="none" fill="#FFFFFF" font-family="'Helvetica-Bold'" font-size="12">S</text>
<text transform="matrix(1 0 0 1 25.002 35)" display="none" fill="#FFFFFF" font-family="'Helvetica-Bold'" font-size="12">M</text>
<text transform="matrix(1 0 0 1 46.335 35)" display="none" fill="#FFFFFF" font-family="'Helvetica-Bold'" font-size="12">L</text>
</svg>
